<svg viewBox="0 0 200 200" width="200" height="200" xmlns="http://www.w3.org/2000/svg" aria-label="Tranqui">
  <defs>
    <clipPath id="circ"><circle cx="100" cy="100" r="86"/></clipPath>
  </defs>
  <!-- sage circle background -->
  <circle cx="100" cy="100" r="100" fill="#5c6f62"/>
  <!-- westie face clipped to inner circle -->
  <g clip-path="url(#circ)">
    <!-- ears -->
    <path d="M52 70 Q56 38 78 44 Q86 56 80 80 Z" fill="#faf7f0"/>
    <path d="M148 70 Q144 38 122 44 Q114 56 120 80 Z" fill="#faf7f0"/>
    <path d="M62 64 Q66 52 74 56 Q76 64 72 72 Z" fill="#ede7d9" opacity=".7"/>
    <path d="M138 64 Q134 52 126 56 Q124 64 128 72 Z" fill="#ede7d9" opacity=".7"/>
    <!-- face -->
    <path d="M100 60 C70 60,52 82,52 110 C52 134,64 152,80 158 C80 168,88 174,100 174 C112 174,120 168,120 158 C136 152,148 134,148 110 C148 82,130 60,100 60 Z" fill="#faf7f0"/>
    <!-- fur tufts -->
    <circle cx="64" cy="120" r="5" fill="#faf7f0"/>
    <circle cx="138" cy="124" r="5" fill="#faf7f0"/>
    <circle cx="74" cy="148" r="4" fill="#faf7f0"/>
    <circle cx="128" cy="150" r="4" fill="#faf7f0"/>
    <!-- eyes -->
    <circle cx="84" cy="116" r="4.2" fill="#2c2a26"/>
    <circle cx="116" cy="116" r="4.2" fill="#2c2a26"/>
    <!-- nose -->
    <path d="M93 134 Q100 130 107 134 Q104 142 100 144 Q96 142 93 134 Z" fill="#2c2a26"/>
    <!-- mouth -->
    <path d="M100 144 L100 152" stroke="#2c2a26" stroke-width="1.6" stroke-linecap="round" fill="none"/>
    <path d="M100 152 Q94 158 88 154" stroke="#2c2a26" stroke-width="1.6" stroke-linecap="round" fill="none"/>
    <path d="M100 152 Q106 158 112 154" stroke="#2c2a26" stroke-width="1.6" stroke-linecap="round" fill="none"/>
  </g>
</svg>
